<svg width="24" height="24" viewBox="0 0 24 24" fill="none" xmlns="http://www.w3.org/2000/svg">
<g clip-path="url(#clip0_29_425)">
<path d="M22.0001 16.9199V19.9199C22.0012 20.1984 21.9441 20.474 21.8326 20.7292C21.721 20.9844 21.5574 21.2134 21.3521 21.4017C21.1469 21.59 20.9046 21.7333 20.6408 21.8226C20.377 21.9118 20.0974 21.9449 19.8201 21.9199C16.7429 21.5855 13.7871 20.534 11.1901 18.8499C8.77388 17.3145 6.72539 15.266 5.19006 12.8499C3.50003 10.2411 2.4483 7.27085 2.12006 4.17985C2.09507 3.90332 2.12793 3.62461 2.21656 3.36148C2.30518 3.09834 2.44763 2.85654 2.63482 2.65147C2.82202 2.44641 3.04986 2.28256 3.30385 2.17037C3.55783 2.05819 3.8324 2.00011 4.11006 1.99985H7.11006C7.59536 1.99508 8.06585 2.16693 8.43382 2.48339C8.80179 2.79984 9.04213 3.2393 9.11005 3.71985C9.23668 4.67992 9.47151 5.62258 9.81006 6.52985C9.9446 6.88778 9.97372 7.27677 9.89396 7.65073C9.81421 8.0247 9.62892 8.36796 9.36005 8.63985L8.09006 9.90985C9.51361 12.4134 11.5865 14.4863 14.0901 15.9099L15.3601 14.6399C15.6319 14.371 15.9752 14.1857 16.3492 14.1059C16.7231 14.0262 17.1121 14.0553 17.4701 14.1899C18.3773 14.5284 19.32 14.7632 20.2801 14.8899C20.7658 14.9584 21.2095 15.2031 21.5266 15.5773C21.8437 15.9516 22.0122 16.4294 22.0001 16.9199Z" stroke="#374151" stroke-width="3.33" stroke-linecap="round" stroke-linejoin="round"/>
</g>
<defs>
<clipPath id="clip0_29_425">
<rect width="24" height="24" fill="white"/>
</clipPath>
</defs>
</svg>
